<svg xmlns="http://www.w3.org/2000/svg" xmlns:svg="http://www.w3.org/2000/svg" xmlns:xlink="http://www.w3.org/1999/xlink" id="svg2" width="744.094" height="1052.362" version="1.1"><defs id="defs4"><marker id="Arrow1Mstart" orient="auto" refX="0" refY="0" style="overflow:visible"><path id="path3774" d="M 0.0,0.0 L 5.0,-5.0 L -12.5,0.0 L 5.0,5.0 L 0.0,0.0 z" transform="scale(0.4) translate(10,0)" style="fill-rule:evenodd;stroke:#000;stroke-width:1pt;marker-start:none"/></marker><marker id="Arrow1Send" orient="auto" refX="0" refY="0" style="overflow:visible"><path id="path3783" d="M 0.0,0.0 L 5.0,-5.0 L -12.5,0.0 L 5.0,5.0 L 0.0,0.0 z" transform="scale(0.2) rotate(180) translate(6,0)" style="fill-rule:evenodd;stroke:#000;stroke-width:1pt;marker-start:none"/></marker><marker id="Arrow2Sstart" orient="auto" refX="0" refY="0" style="overflow:visible"><path id="path3798" d="M 8.7185878,4.0337352 L -2.2072895,0.016013256 L 8.7185884,-4.0017078 C 6.9730900,-1.6296469 6.9831476,1.6157441 8.7185878,4.0337352 z" transform="scale(0.3) translate(-2.3,0)" style="font-size:12;fill-rule:evenodd;stroke-width:.625;stroke-linejoin:round"/></marker><marker id="Arrow2Mend" orient="auto" refX="0" refY="0" style="overflow:visible"><path id="path3795" d="M 8.7185878,4.0337352 L -2.2072895,0.016013256 L 8.7185884,-4.0017078 C 6.9730900,-1.6296469 6.9831476,1.6157441 8.7185878,4.0337352 z" transform="scale(0.6) rotate(180) translate(0,0)" style="font-size:12;fill-rule:evenodd;stroke-width:.625;stroke-linejoin:round"/></marker><marker id="Arrow2Lend" orient="auto" refX="0" refY="0" style="overflow:visible"><path id="path3789" d="M 8.7185878,4.0337352 L -2.2072895,0.016013256 L 8.7185884,-4.0017078 C 6.9730900,-1.6296469 6.9831476,1.6157441 8.7185878,4.0337352 z" transform="scale(1.1) rotate(180) translate(1,0)" style="font-size:12;fill-rule:evenodd;stroke-width:.625;stroke-linejoin:round"/></marker></defs><metadata id="metadata7"/><g id="layer1"><rect style="fill:#000;fill-opacity:1;stroke:#000;stroke-width:0;stroke-miterlimit:4;stroke-opacity:1;stroke-dasharray:none" id="rect2987" width="564.311" height="469.804" x="80.803" y="83.626"/><path style="font-size:medium;font-style:normal;font-variant:normal;font-weight:400;font-stretch:normal;text-indent:0;text-align:start;text-decoration:none;line-height:normal;letter-spacing:normal;word-spacing:normal;text-transform:none;direction:ltr;block-progression:tb;writing-mode:lr-tb;text-anchor:start;baseline-shift:baseline;color:#000;fill:#fff;fill-opacity:1;fill-rule:nonzero;stroke:none;stroke-width:6.80000019;marker:none;visibility:visible;display:inline;overflow:visible;enable-background:accumulate;font-family:Sans;-inkscape-font-specification:Sans" id="path5635" d="m 467.72362,315.44428 -6.77895,-0.003 0.53298,123.77652 6.29925,1.11591 z"/><rect style="fill:#fff;fill-opacity:1;stroke:#000;stroke-width:0;stroke-miterlimit:4;stroke-opacity:1;stroke-dasharray:none" id="rect3757" width="497.865" height="41.416" x="111.476" y="260.403"/><path id="path3763" d="m 143.15876,152.84851 -4.25,5.28125 96.79464,77.14731 4.81697,-4.20982 z" style="font-size:medium;font-style:normal;font-variant:normal;font-weight:400;font-stretch:normal;text-indent:0;text-align:start;text-decoration:none;line-height:normal;letter-spacing:normal;word-spacing:normal;text-transform:none;direction:ltr;block-progression:tb;writing-mode:lr-tb;text-anchor:start;baseline-shift:baseline;color:#000;fill:#fff;fill-opacity:1;fill-rule:nonzero;stroke:none;stroke-width:6.80000019;marker:none;visibility:visible;display:inline;overflow:visible;enable-background:accumulate;font-family:Sans;-inkscape-font-specification:Sans"/><path id="path4401" d="m 237.8169,221.42297 30.4742,36.64054 -41.95187,-22.37396 c 11.61947,-3.06095 10.79428,-2.14247 11.47767,-14.26658 z" style="font-size:12px;fill:#fff;fill-opacity:1;fill-rule:evenodd;stroke-width:.625;stroke-linejoin:round"/><g id="g5187" transform="translate(-2.6714563,9.003176)" style="stroke:#000;stroke-width:.1;stroke-miterlimit:4;stroke-opacity:1;stroke-dasharray:none"><path style="font-size:medium;font-style:normal;font-variant:normal;font-weight:400;font-stretch:normal;text-indent:0;text-align:start;text-decoration:none;line-height:normal;letter-spacing:normal;word-spacing:normal;text-transform:none;direction:ltr;block-progression:tb;writing-mode:lr-tb;text-anchor:start;baseline-shift:baseline;color:#000;fill:#fff;fill-opacity:1;fill-rule:nonzero;stroke:#000;stroke-width:.1;stroke-miterlimit:4;stroke-opacity:1;stroke-dasharray:none;marker:none;visibility:visible;display:inline;overflow:visible;enable-background:accumulate;font-family:Sans;-inkscape-font-specification:Sans" id="path4415" d="m 276.52475,248.29425 0,1 50.75,0 0,-1 -50.75,0 z"/><path style="font-size:12px;fill:#fff;fill-opacity:1;fill-rule:evenodd;stroke:#000;stroke-width:.1;stroke-linejoin:round;stroke-miterlimit:4;stroke-opacity:1;stroke-dasharray:none" id="path5175" d="m 322.05827,246.36559 6.55552,2.41063 -6.55552,2.41063 c 1.0473,-1.42323 1.04126,-3.37047 0,-4.82126 z"/></g><use id="use5327" x="0" y="0" xlink:href="#g5187"/><use id="use5329" width="744.094" height="1052.362" x="0" y="0" transform="matrix(0.93969262,-0.34202014,0.34202014,0.93969262,-71.919227,107.04566)" xlink:href="#g5187"/><use id="use5331" width="744.094" height="1052.362" x="0" y="0" transform="matrix(0.76604444,-0.64278761,0.64278761,0.76604444,-103.05299,232.09738)" xlink:href="#g5187"/><use id="use5333" width="744.094" height="1052.362" x="0" y="0" transform="matrix(0.5,-0.8660254,0.8660254,0.5,-89.393551,360.08203)" xlink:href="#g5187"/><use id="use5335" width="744.094" height="1052.362" x="0" y="0" transform="matrix(0.17364818,-0.98480775,0.98480775,0.17364818,-32.864451,475.59031)" xlink:href="#g5187"/><use id="use5337" width="744.094" height="1052.362" x="0" y="0" transform="matrix(-0.17364818,-0.98480775,0.98480775,-0.17364818,59.547964,565.01628)" xlink:href="#g5187"/><use id="use5339" width="744.094" height="1052.362" x="0" y="0" transform="matrix(-0.5,-0.8660254,0.8660254,-0.5,177.0485,617.40442)" xlink:href="#g5187"/><use id="use5341" width="744.094" height="1052.362" x="0" y="0" transform="matrix(-0.76604444,-0.64278761,0.64278761,-0.76604444,305.26443,626.40274)" xlink:href="#g5187"/><use id="use5343" width="744.094" height="1052.362" x="0" y="0" transform="matrix(-0.93969262,-0.34202014,0.34202014,-0.93969262,428.92612,591.05544)" xlink:href="#g5187"/><use id="use5345" width="744.094" height="1052.362" x="0" y="0" transform="matrix(-1,0,0,-1,533.24912,515.63749)" xlink:href="#g5187"/><path style="font-size:medium;font-style:normal;font-variant:normal;font-weight:400;font-stretch:normal;text-indent:0;text-align:start;text-decoration:none;line-height:normal;letter-spacing:normal;word-spacing:normal;text-transform:none;direction:ltr;block-progression:tb;writing-mode:lr-tb;text-anchor:start;baseline-shift:baseline;color:#000;fill:#fff;fill-opacity:1;fill-rule:nonzero;stroke:none;stroke-width:6.80000019;marker:none;visibility:visible;display:inline;overflow:visible;enable-background:accumulate;font-family:Sans;-inkscape-font-specification:Sans" id="path5407" d="m 266.73019,152.84851 -4.25,5.28125 96.79464,77.14731 4.81697,-4.20982 z"/><path style="font-size:12px;fill:#fff;fill-opacity:1;fill-rule:evenodd;stroke-width:.625;stroke-linejoin:round" id="path5409" d="m 361.38833,221.42297 30.4742,36.64054 -41.95187,-22.37396 c 11.61947,-3.06095 10.79428,-2.14247 11.47767,-14.26658 z"/><g style="stroke:#000;stroke-width:.1;stroke-miterlimit:4;stroke-opacity:1;stroke-dasharray:none" id="g5411" transform="translate(120.89997,9.003176)"><path id="path5413" d="m 276.52475,248.29425 0,1 50.75,0 0,-1 -50.75,0 z" style="font-size:medium;font-style:normal;font-variant:normal;font-weight:400;font-stretch:normal;text-indent:0;text-align:start;text-decoration:none;line-height:normal;letter-spacing:normal;word-spacing:normal;text-transform:none;direction:ltr;block-progression:tb;writing-mode:lr-tb;text-anchor:start;baseline-shift:baseline;color:#000;fill:#fff;fill-opacity:1;fill-rule:nonzero;stroke:#000;stroke-width:.1;stroke-miterlimit:4;stroke-opacity:1;stroke-dasharray:none;marker:none;visibility:visible;display:inline;overflow:visible;enable-background:accumulate;font-family:Sans;-inkscape-font-specification:Sans"/><path id="path5415" d="m 322.05827,246.36559 6.55552,2.41063 -6.55552,2.41063 c 1.0473,-1.42323 1.04126,-3.37047 0,-4.82126 z" style="font-size:12px;fill:#fff;fill-opacity:1;fill-rule:evenodd;stroke:#000;stroke-width:.1;stroke-linejoin:round;stroke-miterlimit:4;stroke-opacity:1;stroke-dasharray:none"/></g><use id="use5417" width="744.094" height="1052.362" x="0" y="0" transform="translate(123.57143,0)" xlink:href="#g5187"/><use id="use5419" width="744.094" height="1052.362" x="0" y="0" transform="matrix(0.93969262,-0.34202014,0.34202014,0.93969262,51.652202,107.04566)" xlink:href="#g5187"/><use id="use5421" width="744.094" height="1052.362" x="0" y="0" transform="matrix(0.76604444,-0.64278761,0.64278761,0.76604444,20.518439,232.09738)" xlink:href="#g5187"/><use id="use5423" width="744.094" height="1052.362" x="0" y="0" transform="matrix(0.5,-0.8660254,0.8660254,0.5,34.177878,360.08203)" xlink:href="#g5187"/><use id="use5425" width="744.094" height="1052.362" x="0" y="0" transform="matrix(0.17364818,-0.98480775,0.98480775,0.17364818,90.706978,475.59031)" xlink:href="#g5187"/><use id="use5427" width="744.094" height="1052.362" x="0" y="0" transform="matrix(-0.17364818,-0.98480775,0.98480775,-0.17364818,183.11939,565.01628)" xlink:href="#g5187"/><use id="use5429" width="744.094" height="1052.362" x="0" y="0" transform="matrix(-0.5,-0.8660254,0.8660254,-0.5,300.61993,617.40442)" xlink:href="#g5187"/><use id="use5431" width="744.094" height="1052.362" x="0" y="0" transform="matrix(-0.76604444,-0.64278761,0.64278761,-0.76604444,428.83586,626.40274)" xlink:href="#g5187"/><use id="use5433" width="744.094" height="1052.362" x="0" y="0" transform="matrix(-0.93969262,-0.34202014,0.34202014,-0.93969262,552.49755,591.05544)" xlink:href="#g5187"/><use id="use5435" width="744.094" height="1052.362" x="0" y="0" transform="matrix(-1,0,0,-1,656.82055,515.63749)" xlink:href="#g5187"/><path id="path5437" d="m 388.87305,152.84851 -4.25,5.28125 96.79464,77.14731 4.81697,-4.20982 z" style="font-size:medium;font-style:normal;font-variant:normal;font-weight:400;font-stretch:normal;text-indent:0;text-align:start;text-decoration:none;line-height:normal;letter-spacing:normal;word-spacing:normal;text-transform:none;direction:ltr;block-progression:tb;writing-mode:lr-tb;text-anchor:start;baseline-shift:baseline;color:#000;fill:#fff;fill-opacity:1;fill-rule:nonzero;stroke:none;stroke-width:6.80000019;marker:none;visibility:visible;display:inline;overflow:visible;enable-background:accumulate;font-family:Sans;-inkscape-font-specification:Sans"/><path id="path5439" d="m 483.53119,221.42297 30.4742,36.64054 -41.95187,-22.37396 c 11.61947,-3.06095 10.79428,-2.14247 11.47767,-14.26658 z" style="font-size:12px;fill:#fff;fill-opacity:1;fill-rule:evenodd;stroke-width:.625;stroke-linejoin:round"/><g id="g5441" transform="translate(243.04283,9.003176)" style="stroke:#000;stroke-width:.1;stroke-miterlimit:4;stroke-opacity:1;stroke-dasharray:none"><path style="font-size:medium;font-style:normal;font-variant:normal;font-weight:400;font-stretch:normal;text-indent:0;text-align:start;text-decoration:none;line-height:normal;letter-spacing:normal;word-spacing:normal;text-transform:none;direction:ltr;block-progression:tb;writing-mode:lr-tb;text-anchor:start;baseline-shift:baseline;color:#000;fill:#fff;fill-opacity:1;fill-rule:nonzero;stroke:#000;stroke-width:.1;stroke-miterlimit:4;stroke-opacity:1;stroke-dasharray:none;marker:none;visibility:visible;display:inline;overflow:visible;enable-background:accumulate;font-family:Sans;-inkscape-font-specification:Sans" id="path5443" d="m 276.52475,248.29425 0,1 50.75,0 0,-1 -50.75,0 z"/><path style="font-size:12px;fill:#fff;fill-opacity:1;fill-rule:evenodd;stroke:#000;stroke-width:.1;stroke-linejoin:round;stroke-miterlimit:4;stroke-opacity:1;stroke-dasharray:none" id="path5445" d="m 322.05827,246.36559 6.55552,2.41063 -6.55552,2.41063 c 1.0473,-1.42323 1.04126,-3.37047 0,-4.82126 z"/></g><use id="use5447" width="744.094" height="1052.362" x="0" y="0" transform="translate(245.71429,0)" xlink:href="#g5187"/><use id="use5449" width="744.094" height="1052.362" x="0" y="0" transform="matrix(0.93969262,-0.34202014,0.34202014,0.93969262,173.79506,107.04566)" xlink:href="#g5187"/><use id="use5451" width="744.094" height="1052.362" x="0" y="0" transform="matrix(0.76604444,-0.64278761,0.64278761,0.76604444,142.6613,232.09738)" xlink:href="#g5187"/><use id="use5453" width="744.094" height="1052.362" x="0" y="0" transform="matrix(0.5,-0.8660254,0.8660254,0.5,156.32074,360.08203)" xlink:href="#g5187"/><use id="use5455" width="744.094" height="1052.362" x="0" y="0" transform="matrix(0.17364818,-0.98480775,0.98480775,0.17364818,212.84984,475.59031)" xlink:href="#g5187"/><use id="use5457" width="744.094" height="1052.362" x="0" y="0" transform="matrix(-0.17364818,-0.98480775,0.98480775,-0.17364818,305.26225,565.01628)" xlink:href="#g5187"/><use id="use5459" width="744.094" height="1052.362" x="0" y="0" transform="matrix(-0.5,-0.8660254,0.8660254,-0.5,422.76279,617.40442)" xlink:href="#g5187"/><use id="use5461" width="744.094" height="1052.362" x="0" y="0" transform="matrix(-0.76604444,-0.64278761,0.64278761,-0.76604444,550.97872,626.40274)" xlink:href="#g5187"/><use id="use5463" width="744.094" height="1052.362" x="0" y="0" transform="matrix(-0.93969262,-0.34202014,0.34202014,-0.93969262,674.64041,591.05544)" xlink:href="#g5187"/><use id="use5465" width="744.094" height="1052.362" x="0" y="0" transform="matrix(-1,0,0,-1,778.96341,515.63749)" xlink:href="#g5187"/><rect id="rect5523" width="497.865" height="41.416" x="111.476" y="480.403" style="fill:#fff;fill-opacity:1;stroke:#000;stroke-width:0;stroke-miterlimit:4;stroke-opacity:1;stroke-dasharray:none"/><path style="font-size:medium;font-style:normal;font-variant:normal;font-weight:400;font-stretch:normal;text-indent:0;text-align:start;text-decoration:none;line-height:normal;letter-spacing:normal;word-spacing:normal;text-transform:none;direction:ltr;block-progression:tb;writing-mode:lr-tb;text-anchor:start;baseline-shift:baseline;color:#000;fill:#fff;fill-opacity:1;fill-rule:nonzero;stroke:none;stroke-width:6.80000019;marker:none;visibility:visible;display:inline;overflow:visible;enable-background:accumulate;font-family:Sans;-inkscape-font-specification:Sans" id="path5525" d="m 321.6522,315.44428 -6.77895,-0.003 0.53298,123.77652 6.29925,1.11591 z"/><path style="font-size:12px;fill:#fff;fill-opacity:1;fill-rule:evenodd;stroke-width:.625;stroke-linejoin:round" id="path5527" d="m 327.52726,432.18375 -9.45828,46.70917 -8.85216,-46.71394 c 9.6666,7.1371 8.43372,7.06957 18.31044,0.005 z"/><g style="stroke:#000;stroke-width:.1;stroke-miterlimit:4;stroke-opacity:1;stroke-dasharray:none" id="g5529" transform="translate(48.04283,229.00318)"><path id="path5531" d="m 276.52475,248.29425 0,1 50.75,0 0,-1 -50.75,0 z" style="font-size:medium;font-style:normal;font-variant:normal;font-weight:400;font-stretch:normal;text-indent:0;text-align:start;text-decoration:none;line-height:normal;letter-spacing:normal;word-spacing:normal;text-transform:none;direction:ltr;block-progression:tb;writing-mode:lr-tb;text-anchor:start;baseline-shift:baseline;color:#000;fill:#fff;fill-opacity:1;fill-rule:nonzero;stroke:#000;stroke-width:.1;stroke-miterlimit:4;stroke-opacity:1;stroke-dasharray:none;marker:none;visibility:visible;display:inline;overflow:visible;enable-background:accumulate;font-family:Sans;-inkscape-font-specification:Sans"/><path id="path5533" d="m 322.05827,246.36559 6.55552,2.41063 -6.55552,2.41063 c 1.0473,-1.42323 1.04126,-3.37047 0,-4.82126 z" style="font-size:12px;fill:#fff;fill-opacity:1;fill-rule:evenodd;stroke:#000;stroke-width:.1;stroke-linejoin:round;stroke-miterlimit:4;stroke-opacity:1;stroke-dasharray:none"/></g><use id="use5535" width="744.094" height="1052.362" x="0" y="0" transform="translate(50.714286,220)" xlink:href="#g5187"/><use id="use5537" width="744.094" height="1052.362" x="0" y="0" transform="matrix(0.93969262,-0.34202014,0.34202014,0.93969262,-21.204941,327.04566)" xlink:href="#g5187"/><use id="use5539" width="744.094" height="1052.362" x="0" y="0" transform="matrix(0.76604444,-0.64278761,0.64278761,0.76604444,-52.338704,452.09738)" xlink:href="#g5187"/><use id="use5541" width="744.094" height="1052.362" x="0" y="0" transform="matrix(0.5,-0.8660254,0.8660254,0.5,-38.679265,580.08203)" xlink:href="#g5187"/><use id="use5543" width="744.094" height="1052.362" x="0" y="0" transform="matrix(0.17364818,-0.98480775,0.98480775,0.17364818,17.849835,695.59031)" xlink:href="#g5187"/><use id="use5545" width="744.094" height="1052.362" x="0" y="0" transform="matrix(-0.17364818,-0.98480775,0.98480775,-0.17364818,110.26225,785.01628)" xlink:href="#g5187"/><use id="use5547" width="744.094" height="1052.362" x="0" y="0" transform="matrix(-0.5,-0.8660254,0.8660254,-0.5,227.76279,837.40442)" xlink:href="#g5187"/><use id="use5549" width="744.094" height="1052.362" x="0" y="0" transform="matrix(-0.76604444,-0.64278761,0.64278761,-0.76604444,355.97872,846.40274)" xlink:href="#g5187"/><use id="use5551" width="744.094" height="1052.362" x="0" y="0" transform="matrix(-0.93969262,-0.34202014,0.34202014,-0.93969262,479.64041,811.05544)" xlink:href="#g5187"/><use id="use5553" width="744.094" height="1052.362" x="0" y="0" transform="matrix(-1,0,0,-1,583.96341,735.63749)" xlink:href="#g5187"/><g id="g5559" transform="translate(120.89997,229.00318)" style="stroke:#000;stroke-width:.1;stroke-miterlimit:4;stroke-opacity:1;stroke-dasharray:none"><path style="font-size:medium;font-style:normal;font-variant:normal;font-weight:400;font-stretch:normal;text-indent:0;text-align:start;text-decoration:none;line-height:normal;letter-spacing:normal;word-spacing:normal;text-transform:none;direction:ltr;block-progression:tb;writing-mode:lr-tb;text-anchor:start;baseline-shift:baseline;color:#000;fill:#fff;fill-opacity:1;fill-rule:nonzero;stroke:#000;stroke-width:.1;stroke-miterlimit:4;stroke-opacity:1;stroke-dasharray:none;marker:none;visibility:visible;display:inline;overflow:visible;enable-background:accumulate;font-family:Sans;-inkscape-font-specification:Sans" id="path5561" d="m 276.52475,248.29425 0,1 50.75,0 0,-1 -50.75,0 z"/><path style="font-size:12px;fill:#fff;fill-opacity:1;fill-rule:evenodd;stroke:#000;stroke-width:.1;stroke-linejoin:round;stroke-miterlimit:4;stroke-opacity:1;stroke-dasharray:none" id="path5563" d="m 322.05827,246.36559 6.55552,2.41063 -6.55552,2.41063 c 1.0473,-1.42323 1.04126,-3.37047 0,-4.82126 z"/></g><use id="use5565" width="744.094" height="1052.362" x="0" y="0" transform="translate(123.57143,220)" xlink:href="#g5187"/><use id="use5567" width="744.094" height="1052.362" x="0" y="0" transform="matrix(0.93969262,-0.34202014,0.34202014,0.93969262,51.652202,327.04566)" xlink:href="#g5187"/><path id="path5631" d="m 394.15219,315.44428 -6.77895,-0.003 0.53298,123.77652 6.29925,1.11591 z" style="font-size:medium;font-style:normal;font-variant:normal;font-weight:400;font-stretch:normal;text-indent:0;text-align:start;text-decoration:none;line-height:normal;letter-spacing:normal;word-spacing:normal;text-transform:none;direction:ltr;block-progression:tb;writing-mode:lr-tb;text-anchor:start;baseline-shift:baseline;color:#000;fill:#fff;fill-opacity:1;fill-rule:nonzero;stroke:none;stroke-width:6.80000019;marker:none;visibility:visible;display:inline;overflow:visible;enable-background:accumulate;font-family:Sans;-inkscape-font-specification:Sans"/><use id="use5569" width="744.094" height="1052.362" x="0" y="0" transform="matrix(0.76604444,-0.64278761,0.64278761,0.76604444,20.518439,452.09738)" xlink:href="#g5187"/><path id="path5633" d="m 400.02725,432.18375 -9.45828,46.70917 -8.85216,-46.71394 c 9.6666,7.1371 8.43372,7.06957 18.31044,0.005 z" style="font-size:12px;fill:#fff;fill-opacity:1;fill-rule:evenodd;stroke-width:.625;stroke-linejoin:round"/><use id="use5571" width="744.094" height="1052.362" x="0" y="0" transform="matrix(0.5,-0.8660254,0.8660254,0.5,34.177878,580.08203)" xlink:href="#g5187"/><use id="use5573" width="744.094" height="1052.362" x="0" y="0" transform="matrix(0.17364818,-0.98480775,0.98480775,0.17364818,90.706978,695.59031)" xlink:href="#g5187"/><use id="use5575" width="744.094" height="1052.362" x="0" y="0" transform="matrix(-0.17364818,-0.98480775,0.98480775,-0.17364818,183.11939,785.01628)" xlink:href="#g5187"/><use id="use5577" width="744.094" height="1052.362" x="0" y="0" transform="matrix(-0.5,-0.8660254,0.8660254,-0.5,300.61993,837.40442)" xlink:href="#g5187"/><use id="use5579" width="744.094" height="1052.362" x="0" y="0" transform="matrix(-0.76604444,-0.64278761,0.64278761,-0.76604444,428.83586,846.40274)" xlink:href="#g5187"/><use id="use5581" width="744.094" height="1052.362" x="0" y="0" transform="matrix(-0.93969262,-0.34202014,0.34202014,-0.93969262,552.49755,811.05544)" xlink:href="#g5187"/><use id="use5583" width="744.094" height="1052.362" x="0" y="0" transform="matrix(-1,0,0,-1,656.82055,735.63749)" xlink:href="#g5187"/><g style="stroke:#000;stroke-width:.1;stroke-miterlimit:4;stroke-opacity:1;stroke-dasharray:none" id="g5589" transform="translate(194.4714,229.00318)"><path id="path5591" d="m 276.52475,248.29425 0,1 50.75,0 0,-1 -50.75,0 z" style="font-size:medium;font-style:normal;font-variant:normal;font-weight:400;font-stretch:normal;text-indent:0;text-align:start;text-decoration:none;line-height:normal;letter-spacing:normal;word-spacing:normal;text-transform:none;direction:ltr;block-progression:tb;writing-mode:lr-tb;text-anchor:start;baseline-shift:baseline;color:#000;fill:#fff;fill-opacity:1;fill-rule:nonzero;stroke:#000;stroke-width:.1;stroke-miterlimit:4;stroke-opacity:1;stroke-dasharray:none;marker:none;visibility:visible;display:inline;overflow:visible;enable-background:accumulate;font-family:Sans;-inkscape-font-specification:Sans"/><path id="path5593" d="m 322.05827,246.36559 6.55552,2.41063 -6.55552,2.41063 c 1.0473,-1.42323 1.04126,-3.37047 0,-4.82126 z" style="font-size:12px;fill:#fff;fill-opacity:1;fill-rule:evenodd;stroke:#000;stroke-width:.1;stroke-linejoin:round;stroke-miterlimit:4;stroke-opacity:1;stroke-dasharray:none"/></g><path style="font-size:12px;fill:#fff;fill-opacity:1;fill-rule:evenodd;stroke-width:.625;stroke-linejoin:round" id="path5637" d="m 473.59868,432.18375 -9.45828,46.70917 -8.85216,-46.71394 c 9.6666,7.1371 8.43372,7.06957 18.31044,0.005 z"/><use id="use5595" width="744.094" height="1052.362" x="0" y="0" transform="translate(197.14286,220)" xlink:href="#g5187"/><use id="use5597" width="744.094" height="1052.362" x="0" y="0" transform="matrix(0.93969262,-0.34202014,0.34202014,0.93969262,125.22363,327.04566)" xlink:href="#g5187"/><use id="use5599" width="744.094" height="1052.362" x="0" y="0" transform="matrix(0.76604444,-0.64278761,0.64278761,0.76604444,94.089871,452.09738)" xlink:href="#g5187"/><use id="use5601" width="744.094" height="1052.362" x="0" y="0" transform="matrix(0.5,-0.8660254,0.8660254,0.5,107.74931,580.08203)" xlink:href="#g5187"/><use id="use5603" width="744.094" height="1052.362" x="0" y="0" transform="matrix(0.17364818,-0.98480775,0.98480775,0.17364818,164.27841,695.59031)" xlink:href="#g5187"/><use id="use5605" width="744.094" height="1052.362" x="0" y="0" transform="matrix(-0.17364818,-0.98480775,0.98480775,-0.17364818,256.69082,785.01628)" xlink:href="#g5187"/><use id="use5607" width="744.094" height="1052.362" x="0" y="0" transform="matrix(-0.5,-0.8660254,0.8660254,-0.5,374.19136,837.40442)" xlink:href="#g5187"/><use id="use5609" width="744.094" height="1052.362" x="0" y="0" transform="matrix(-0.76604444,-0.64278761,0.64278761,-0.76604444,502.40729,846.40274)" xlink:href="#g5187"/><use id="use5611" width="744.094" height="1052.362" x="0" y="0" transform="matrix(-0.93969262,-0.34202014,0.34202014,-0.93969262,626.06898,811.05544)" xlink:href="#g5187"/><use id="use5613" width="744.094" height="1052.362" x="0" y="0" transform="matrix(-1,0,0,-1,730.39198,735.63749)" xlink:href="#g5187"/><g id="g6211" style="fill:#fff;fill-opacity:1"><path style="font-size:medium;font-style:normal;font-variant:normal;font-weight:400;font-stretch:normal;text-indent:0;text-align:start;text-decoration:none;line-height:normal;letter-spacing:normal;word-spacing:normal;text-transform:none;direction:ltr;block-progression:tb;writing-mode:lr-tb;text-anchor:start;baseline-shift:baseline;color:#000;fill:#fff;fill-opacity:1;stroke:none;stroke-width:.60000001999999997;marker:none;visibility:visible;display:inline;overflow:visible;enable-background:accumulate;font-family:Sans;-inkscape-font-specification:Sans" id="path5639" d="m 257,165.1875 0.4375,0.40625 2.4375,-2.6875 -0.46875,-0.375 z m -2.8125,3.09375 0.4375,0.40625 2.40625,-2.65625 -0.4375,-0.40625 z m -2.84375,3.125 0.46875,0.40625 2.40625,-2.65625 -0.4375,-0.40625 z m -2.8125,3.125 0.4375,0.375 2.4375,-2.65625 -0.4375,-0.40625 z m -2.8125,3.09375 0.4375,0.40625 2.4375,-2.65625 -0.46875,-0.40625 z m -2.8125,3.125 0.4375,0.40625 2.40625,-2.6875 -0.4375,-0.40625 z m -2.84375,3.09375 0.46875,0.40625 2.40625,-2.65625 -0.4375,-0.40625 z m -2.8125,3.125 0.4375,0.40625 2.4375,-2.6875 -0.46875,-0.40625 z m -2.8125,3.09375 0.4375,0.40625 2.40625,-2.65625 -0.4375,-0.40625 z m -2.84375,3.125 0.46875,0.40625 2.40625,-2.6875 -0.4375,-0.375 z m -2.8125,3.09375 0.4375,0.40625 2.4375,-2.65625 -0.4375,-0.40625 z m -2.8125,3.125 0.4375,0.40625 2.40625,-2.65625 -0.4375,-0.40625 z m -2.8125,3.125 0.4375,0.375 L 226,200.25 l -0.4375,-0.40625 z m -2.84375,3.09375 0.4375,0.40625 2.4375,-2.65625 -0.4375,-0.40625 z m -2.6875,2.96875 0.46875,0.40625 2.28125,-2.53125 -0.46875,-0.40625 z"/><path style="fill-rule:evenodd;stroke:#000;stroke-width:.24000001000000001pt;marker-start:none;fill:#fff;fill-opacity:1" id="path6217" d="m 258.0305,164.49705 0.0827,1.69504 1.93276,-3.9172 -3.71049,2.30484 1.69504,-0.0827 z"/><path style="font-size:12px;fill-rule:evenodd;stroke-width:.625;stroke-linejoin:round;fill:#fff;fill-opacity:1" id="path6219" d="m 221.04139,207.44143 -3.71382,1.94179 1.5711,-3.88519 c 0.21038,1.03915 1.07822,1.82138 2.14272,1.9434 z"/></g><g style="fill:#fff;fill-opacity:1" id="g6221" transform="matrix(0.67211644,0.74044546,-0.74044546,0.67211644,331.54111,44.115657)"><path id="path6223" d="m 257,165.1875 0.4375,0.40625 2.4375,-2.6875 -0.46875,-0.375 z m -2.8125,3.09375 0.4375,0.40625 2.40625,-2.65625 -0.4375,-0.40625 z m -2.84375,3.125 0.46875,0.40625 2.40625,-2.65625 -0.4375,-0.40625 z m -2.8125,3.125 0.4375,0.375 2.4375,-2.65625 -0.4375,-0.40625 z m -2.8125,3.09375 0.4375,0.40625 2.4375,-2.65625 -0.46875,-0.40625 z m -2.8125,3.125 0.4375,0.40625 2.40625,-2.6875 -0.4375,-0.40625 z m -2.84375,3.09375 0.46875,0.40625 2.40625,-2.65625 -0.4375,-0.40625 z m -2.8125,3.125 0.4375,0.40625 2.4375,-2.6875 -0.46875,-0.40625 z m -2.8125,3.09375 0.4375,0.40625 2.40625,-2.65625 -0.4375,-0.40625 z m -2.84375,3.125 0.46875,0.40625 2.40625,-2.6875 -0.4375,-0.375 z m -2.8125,3.09375 0.4375,0.40625 2.4375,-2.65625 -0.4375,-0.40625 z m -2.8125,3.125 0.4375,0.40625 2.40625,-2.65625 -0.4375,-0.40625 z m -2.8125,3.125 0.4375,0.375 L 226,200.25 l -0.4375,-0.40625 z m -2.84375,3.09375 0.4375,0.40625 2.4375,-2.65625 -0.4375,-0.40625 z m -2.6875,2.96875 0.46875,0.40625 2.28125,-2.53125 -0.46875,-0.40625 z" style="font-size:medium;font-style:normal;font-variant:normal;font-weight:400;font-stretch:normal;text-indent:0;text-align:start;text-decoration:none;line-height:normal;letter-spacing:normal;word-spacing:normal;text-transform:none;direction:ltr;block-progression:tb;writing-mode:lr-tb;text-anchor:start;baseline-shift:baseline;color:#000;fill:#fff;fill-opacity:1;stroke:none;stroke-width:.60000002;marker:none;visibility:visible;display:inline;overflow:visible;enable-background:accumulate;font-family:Sans;-inkscape-font-specification:Sans"/><path id="path6225" d="m 258.0305,164.49705 0.0827,1.69504 1.93276,-3.9172 -3.71049,2.30484 1.69504,-0.0827 z" style="fill:#fff;fill-opacity:1;fill-rule:evenodd;stroke:#000;stroke-width:.24000001pt;marker-start:none"/><path id="path6227" d="m 221.04139,207.44143 -3.71382,1.94179 1.5711,-3.88519 c 0.21038,1.03915 1.07822,1.82138 2.14272,1.9434 z" style="font-size:12px;fill:#fff;fill-opacity:1;fill-rule:evenodd;stroke-width:.625;stroke-linejoin:round"/></g></g></svg>