<svg xmlns="http://www.w3.org/2000/svg" xmlns:svg="http://www.w3.org/2000/svg" id="svg2" width="744.094" height="1052.362" version="1.1"><defs id="defs4"><marker id="Arrow1Lend" orient="auto" refX="0" refY="0" style="overflow:visible"><path id="path3769" d="M 0.0,0.0 L 5.0,-5.0 L -12.5,0.0 L 5.0,5.0 L 0.0,0.0 z" transform="scale(0.8) rotate(180) translate(12.5,0)" style="fill-rule:evenodd;stroke:#000;stroke-width:1pt;marker-start:none"/></marker><marker id="Arrow1Mend" orient="auto" refX="0" refY="0" style="overflow:visible"><path id="path3775" d="M 0.0,0.0 L 5.0,-5.0 L -12.5,0.0 L 5.0,5.0 L 0.0,0.0 z" transform="scale(0.4) rotate(180) translate(10,0)" style="fill-rule:evenodd;stroke:#000;stroke-width:1pt;marker-start:none"/></marker><marker id="Arrow1Mend-3" orient="auto" refX="0" refY="0" style="overflow:visible"><path id="path3775-9" d="M 0,0 5,-5 -12.5,0 5,5 0,0 z" transform="matrix(-0.4,0,0,-0.4,-4,0)" style="fill-rule:evenodd;stroke:#000;stroke-width:1pt;marker-start:none"/></marker></defs><metadata id="metadata7"/><g id="layer1"><rect style="fill:#fff;fill-opacity:1;stroke:none" id="rect4514" width="271.731" height="162.635" x="471.741" y="92.909"/><path style="fill:none;stroke:#000;stroke-width:1px;stroke-linecap:butt;stroke-linejoin:miter;stroke-opacity:1" id="path2985" d="m 56.428571,189.50504 92.142859,-32.85714 90.71428,29.28571"/><path style="fill:none;stroke:#000;stroke-width:1px;stroke-linecap:butt;stroke-linejoin:miter;stroke-opacity:1;marker-end:url(#Arrow1Mend)" id="path2987" d="M 56.428571,189.50504 40,158.07647"/><path style="fill:none;stroke:#000;stroke-width:1px;stroke-linecap:butt;stroke-linejoin:miter;stroke-opacity:1;marker-end:url(#Arrow1Mend)" id="path2989" d="m 148.57143,156.6479 -0.42585,-32.1503"/><path style="fill:none;stroke:#000;stroke-width:1px;stroke-linecap:butt;stroke-linejoin:miter;stroke-opacity:1;marker-end:url(#Arrow1Mend)" id="path2991" d="m 239.28571,185.93361 16.42858,-30"/><path id="path2993" d="m 56.428571,189.50504 c 8.677848,-9.25023 49.940169,-33.39317 92.142859,-32.85714 41.53852,0.50743 80.93178,22.04919 90.71428,29.28571" style="fill:none;stroke:red;stroke-width:.60000002;stroke-linecap:butt;stroke-linejoin:miter;stroke-miterlimit:4;stroke-opacity:1;stroke-dasharray:none"/><path id="path4232" d="m 397.85714,245.57647 16.07143,-88.92857 24.28571,70.71428" style="fill:none;stroke:#000;stroke-width:1px;stroke-linecap:butt;stroke-linejoin:miter;stroke-opacity:1"/><path id="path4234" d="M 397.85714,245.57647 370.28535,231.61508" style="fill:none;stroke:#000;stroke-width:1px;stroke-linecap:butt;stroke-linejoin:miter;stroke-opacity:1;marker-end:url(#Arrow1Mend)"/><path id="path4236" d="m 413.92857,156.6479 -0.42585,-32.1503" style="fill:none;stroke:#000;stroke-width:1px;stroke-linecap:butt;stroke-linejoin:miter;stroke-opacity:1;marker-end:url(#Arrow1Mend)"/><path id="path4238" d="m 438.21428,227.36218 29.27829,-18.05584" style="fill:none;stroke:#000;stroke-width:1px;stroke-linecap:butt;stroke-linejoin:miter;stroke-opacity:1;marker-end:url(#Arrow1Mend)"/><path style="fill:none;stroke:red;stroke-width:.60000002;stroke-linecap:butt;stroke-linejoin:miter;stroke-miterlimit:4;stroke-opacity:1;stroke-dasharray:none" id="path4240" d="m 397.85714,245.57647 c 6.12401,-19.43406 -1.4884,-88.75031 16.07143,-88.92857 16.18138,0.15029 16.02152,56.86536 24.28571,70.71428"/><path style="fill:none;stroke:#000;stroke-width:1px;stroke-linecap:butt;stroke-linejoin:miter;stroke-opacity:1" id="path4267" d="m 589.28571,245.57647 15.50902,-88.97321 m 1.23643,-0.0447 23.61169,70.80357"/><path style="fill:none;stroke:#000;stroke-width:1px;stroke-linecap:butt;stroke-linejoin:miter;stroke-opacity:1;marker-end:url(#Arrow1Mend)" id="path4271" d="m 604.79473,156.60326 -30.22535,-4.87618"/><path id="path4275" d="m 589.28571,245.57647 c 7.89178,-17.91883 12.65374,-70.8201 16.07143,-88.92857 5.82732,17.57542 12.73852,57.62297 24.28571,70.71428" style="fill:none;stroke:red;stroke-width:.60000002;stroke-linecap:butt;stroke-linejoin:miter;stroke-miterlimit:4;stroke-opacity:1;stroke-dasharray:none"/><path id="path4277" d="m 606.03116,156.55861 31.22501,-10.09019" style="fill:none;stroke:#000;stroke-width:1px;stroke-linecap:butt;stroke-linejoin:miter;stroke-opacity:1;marker-end:url(#Arrow1Mend)"/><path style="fill:none;stroke:#000;stroke-width:1px;stroke-linecap:butt;stroke-linejoin:miter;stroke-opacity:1;marker-end:url(#Arrow1Mend)" id="path4292" d="m 629.64285,227.36218 29.27829,-18.05584"/><path id="path4234-9" d="M 589.28571,245.57647 561.71392,231.61508" style="fill:none;stroke:#000;stroke-width:1px;stroke-linecap:butt;stroke-linejoin:miter;stroke-opacity:1;marker-end:url(#Arrow1Mend)"/><text style="font-size:12px;font-style:normal;font-weight:400;line-height:125%;letter-spacing:0;word-spacing:0;fill:#000;fill-opacity:1;stroke:none;font-family:Sans" id="text4318" x="566.786" y="113.434" xml:space="preserve"><tspan id="tspan4320" x="566.786" y="113.434" style="font-size:8px">Two separate vertices</tspan><tspan id="tspan4322" x="566.786" y="123.434" style="font-size:8px">with different normals</tspan></text><path style="fill:none;stroke:#000;stroke-width:.40000001;stroke-linecap:butt;stroke-linejoin:miter;stroke-miterlimit:4;stroke-opacity:1;stroke-dasharray:none;marker-end:url(#Arrow1Lend)" id="path4324" d="m 605.53046,125.2806 c 3.45013,4.73395 3.14181,13.83016 1.78572,21.42857"/></g></svg>