<svg xmlns="http://www.w3.org/2000/svg" xmlns:svg="http://www.w3.org/2000/svg" id="svg2" width="744.094" height="1052.362" version="1.1"><defs id="defs4"><marker id="Arrow1Send" orient="auto" refX="0" refY="0" style="overflow:visible"><path id="path3783" d="M 0.0,0.0 L 5.0,-5.0 L -12.5,0.0 L 5.0,5.0 L 0.0,0.0 z" transform="scale(0.2) rotate(180) translate(6,0)" style="fill-rule:evenodd;stroke:#000;stroke-width:1pt;marker-start:none"/></marker><marker id="Arrow2Sstart" orient="auto" refX="0" refY="0" style="overflow:visible"><path id="path3798" d="M 8.7185878,4.0337352 L -2.2072895,0.016013256 L 8.7185884,-4.0017078 C 6.9730900,-1.6296469 6.9831476,1.6157441 8.7185878,4.0337352 z" transform="scale(0.3) translate(-2.3,0)" style="font-size:12;fill-rule:evenodd;stroke-width:.625;stroke-linejoin:round"/></marker><marker id="Arrow2Mend" orient="auto" refX="0" refY="0" style="overflow:visible"><path id="path3795" d="M 8.7185878,4.0337352 L -2.2072895,0.016013256 L 8.7185884,-4.0017078 C 6.9730900,-1.6296469 6.9831476,1.6157441 8.7185878,4.0337352 z" transform="scale(0.6) rotate(180) translate(0,0)" style="font-size:12;fill-rule:evenodd;stroke-width:.625;stroke-linejoin:round"/></marker><marker id="Arrow2Lend" orient="auto" refX="0" refY="0" style="overflow:visible"><path id="path3789" d="M 8.7185878,4.0337352 L -2.2072895,0.016013256 L 8.7185884,-4.0017078 C 6.9730900,-1.6296469 6.9831476,1.6157441 8.7185878,4.0337352 z" transform="scale(1.1) rotate(180) translate(1,0)" style="font-size:12;fill-rule:evenodd;stroke-width:.625;stroke-linejoin:round"/></marker></defs><metadata id="metadata7"/><g id="layer1"><rect style="fill:#000;fill-opacity:1;stroke:#000;stroke-width:0;stroke-miterlimit:4;stroke-opacity:1;stroke-dasharray:none" id="rect2987" width="500.026" height="250.518" x="51.518" y="83.626"/><rect style="fill:#fff;fill-opacity:1;stroke:#000;stroke-width:0;stroke-miterlimit:4;stroke-opacity:1;stroke-dasharray:none" id="rect3757" width="441.437" height="41.416" x="75.761" y="260.403"/><path id="path3763" d="m 143.15876,152.84851 -4.25,5.28125 97.15179,81.43303 3.38839,-6.8884 z" style="font-size:medium;font-style:normal;font-variant:normal;font-weight:400;font-stretch:normal;text-indent:0;text-align:start;text-decoration:none;line-height:normal;letter-spacing:normal;word-spacing:normal;text-transform:none;direction:ltr;block-progression:tb;writing-mode:lr-tb;text-anchor:start;baseline-shift:baseline;color:#000;fill:#fff;fill-opacity:1;fill-rule:nonzero;stroke:none;stroke-width:6.80000019;marker:none;visibility:visible;display:inline;overflow:visible;enable-background:accumulate;font-family:Sans;-inkscape-font-specification:Sans"/><path id="path4401" d="m 239.42404,221.42297 30.4742,36.64054 -44.98758,-15.2311 c 11.61947,-3.06095 13.82999,-9.28533 14.51338,-21.40944 z" style="font-size:12px;fill:#fff;fill-opacity:1;fill-rule:evenodd;stroke-width:.625;stroke-linejoin:round"/><g style="stroke:#000;stroke-width:.1;stroke-miterlimit:4;stroke-opacity:1;stroke-dasharray:none" id="use5327" transform="matrix(0.9573004,-0.28909503,0.28909503,0.9573004,-61.493268,99.597092)"><path id="path6249" d="m 276.52475,248.29425 0,1 50.75,0 0,-1 -50.75,0 z" style="font-size:medium;font-style:normal;font-variant:normal;font-weight:400;font-stretch:normal;text-indent:0;text-align:start;text-decoration:none;line-height:normal;letter-spacing:normal;word-spacing:normal;text-transform:none;direction:ltr;block-progression:tb;writing-mode:lr-tb;text-anchor:start;baseline-shift:baseline;color:#000;fill:#fff;fill-opacity:1;fill-rule:nonzero;stroke:#000;stroke-width:.1;stroke-miterlimit:4;stroke-opacity:1;stroke-dasharray:none;marker:none;visibility:visible;display:inline;overflow:visible;enable-background:accumulate;font-family:Sans;-inkscape-font-specification:Sans"/><path id="path6251" d="m 322.05827,246.36559 6.55552,2.41063 -6.55552,2.41063 c 1.0473,-1.42323 1.04126,-3.37047 0,-4.82126 z" style="font-size:12px;fill:#fff;fill-opacity:1;fill-rule:evenodd;stroke:#000;stroke-width:.1;stroke-linejoin:round;stroke-miterlimit:4;stroke-opacity:1;stroke-dasharray:none"/></g><g style="stroke:#000;stroke-width:.1;stroke-miterlimit:4;stroke-opacity:1;stroke-dasharray:none" id="use5329" transform="matrix(1.4252857,-0.82720065,0.86043236,1.3702382,-333.70408,143.69438)"><path id="path6243" d="m 276.52475,248.29425 0,1 50.75,0 0,-1 -50.75,0 z" style="font-size:medium;font-style:normal;font-variant:normal;font-weight:400;font-stretch:normal;text-indent:0;text-align:start;text-decoration:none;line-height:normal;letter-spacing:normal;word-spacing:normal;text-transform:none;direction:ltr;block-progression:tb;writing-mode:lr-tb;text-anchor:start;baseline-shift:baseline;color:#000;fill:#fff;fill-opacity:1;fill-rule:nonzero;stroke:#000;stroke-width:.1;stroke-miterlimit:4;stroke-opacity:1;stroke-dasharray:none;marker:none;visibility:visible;display:inline;overflow:visible;enable-background:accumulate;font-family:Sans;-inkscape-font-specification:Sans"/><path id="path6245" d="m 322.05827,246.36559 6.55552,2.41063 -6.55552,2.41063 c 1.0473,-1.42323 1.04126,-3.37047 0,-4.82126 z" style="font-size:12px;fill:#fff;fill-opacity:1;fill-rule:evenodd;stroke:#000;stroke-width:.1;stroke-linejoin:round;stroke-miterlimit:4;stroke-opacity:1;stroke-dasharray:none"/></g><g style="stroke:#000;stroke-width:.1;stroke-miterlimit:4;stroke-opacity:1;stroke-dasharray:none" id="use5331" transform="matrix(1.7476239,-1.4664306,1.4664306,1.7476239,-575.16905,223.68686)"><path id="path6231" d="m 276.52475,248.29425 0,1 50.75,0 0,-1 -50.75,0 z" style="font-size:medium;font-style:normal;font-variant:normal;font-weight:400;font-stretch:normal;text-indent:0;text-align:start;text-decoration:none;line-height:normal;letter-spacing:normal;word-spacing:normal;text-transform:none;direction:ltr;block-progression:tb;writing-mode:lr-tb;text-anchor:start;baseline-shift:baseline;color:#000;fill:#fff;fill-opacity:1;fill-rule:nonzero;stroke:#000;stroke-width:.1;stroke-miterlimit:4;stroke-opacity:1;stroke-dasharray:none;marker:none;visibility:visible;display:inline;overflow:visible;enable-background:accumulate;font-family:Sans;-inkscape-font-specification:Sans"/><path id="path6233" d="m 322.05827,246.36559 6.55552,2.41063 -6.55552,2.41063 c 1.0473,-1.42323 1.04126,-3.37047 0,-4.82126 z" style="font-size:12px;fill:#fff;fill-opacity:1;fill-rule:evenodd;stroke:#000;stroke-width:.1;stroke-linejoin:round;stroke-miterlimit:4;stroke-opacity:1;stroke-dasharray:none"/></g><g style="stroke:#000;stroke-width:.1;stroke-miterlimit:4;stroke-opacity:1;stroke-dasharray:none" id="use5333" transform="matrix(1.019353,-1.2693971,1.2693971,1.019353,-326.73301,348.64247)"><path id="path6237" d="m 276.52475,248.29425 0,1 50.75,0 0,-1 -50.75,0 z" style="font-size:medium;font-style:normal;font-variant:normal;font-weight:400;font-stretch:normal;text-indent:0;text-align:start;text-decoration:none;line-height:normal;letter-spacing:normal;word-spacing:normal;text-transform:none;direction:ltr;block-progression:tb;writing-mode:lr-tb;text-anchor:start;baseline-shift:baseline;color:#000;fill:#fff;fill-opacity:1;fill-rule:nonzero;stroke:#000;stroke-width:.1;stroke-miterlimit:4;stroke-opacity:1;stroke-dasharray:none;marker:none;visibility:visible;display:inline;overflow:visible;enable-background:accumulate;font-family:Sans;-inkscape-font-specification:Sans"/><path id="path6239" d="m 322.05827,246.36559 6.55552,2.41063 -6.55552,2.41063 c 1.0473,-1.42323 1.04126,-3.37047 0,-4.82126 z" style="font-size:12px;fill:#fff;fill-opacity:1;fill-rule:evenodd;stroke:#000;stroke-width:.1;stroke-linejoin:round;stroke-miterlimit:4;stroke-opacity:1;stroke-dasharray:none"/></g><g style="stroke:#000;stroke-width:.1;stroke-miterlimit:4;stroke-opacity:1;stroke-dasharray:none" id="use5335" transform="matrix(0.17364818,-0.98480775,0.98480775,0.17364818,-24.461947,479.78457)"><g id="g6259" transform="matrix(0.94712668,0.32085988,-0.32085988,0.94712668,95.485852,-74.776331)"><path style="font-size:medium;font-style:normal;font-variant:normal;font-weight:400;font-stretch:normal;text-indent:0;text-align:start;text-decoration:none;line-height:normal;letter-spacing:normal;word-spacing:normal;text-transform:none;direction:ltr;block-progression:tb;writing-mode:lr-tb;text-anchor:start;baseline-shift:baseline;color:#000;fill:#fff;fill-opacity:1;fill-rule:nonzero;stroke:#000;stroke-width:.1;stroke-miterlimit:4;stroke-opacity:1;stroke-dasharray:none;marker:none;visibility:visible;display:inline;overflow:visible;enable-background:accumulate;font-family:Sans;-inkscape-font-specification:Sans" id="path6255" d="m 276.52475,248.29425 0,1 50.75,0 0,-1 -50.75,0 z"/><path style="font-size:12px;fill:#fff;fill-opacity:1;fill-rule:evenodd;stroke:#000;stroke-width:.1;stroke-linejoin:round;stroke-miterlimit:4;stroke-opacity:1;stroke-dasharray:none" id="path6257" d="m 322.05827,246.36559 6.55552,2.41063 -6.55552,2.41063 c 1.0473,-1.42323 1.04126,-3.37047 0,-4.82126 z"/></g></g></g></svg>