<svg xmlns="http://www.w3.org/2000/svg" xmlns:svg="http://www.w3.org/2000/svg" id="svg2" width="210mm" height="297mm" version="1.1"><defs id="defs4"><marker style="overflow:visible" id="Arrow1Lend" orient="auto" refX="0" refY="0"><path style="fill-rule:evenodd;stroke:#000;stroke-width:1pt;marker-start:none" id="path3882" d="M 0.0,0.0 L 5.0,-5.0 L -12.5,0.0 L 5.0,5.0 L 0.0,0.0 z" transform="scale(0.8) rotate(180) translate(12.5,0)"/></marker><marker style="overflow:visible" id="Arrow1Mend" orient="auto" refX="0" refY="0"><path style="fill-rule:evenodd;stroke:#000;stroke-width:1pt;marker-start:none" id="path3888" d="M 0.0,0.0 L 5.0,-5.0 L -12.5,0.0 L 5.0,5.0 L 0.0,0.0 z" transform="scale(0.4) rotate(180) translate(10,0)"/></marker><marker style="overflow:visible" id="Arrow1Lend-5" orient="auto" refX="0" refY="0"><path style="fill-rule:evenodd;stroke:#000;stroke-width:1pt;marker-start:none" id="path3882-8" d="M 0,0 5,-5 -12.5,0 5,5 0,0 z" transform="matrix(-0.8,0,0,-0.8,-10,0)"/></marker><marker style="overflow:visible" id="Arrow1Lend-1" orient="auto" refX="0" refY="0"><path style="fill-rule:evenodd;stroke:#000;stroke-width:1pt;marker-start:none" id="path3882-2" d="M 0,0 5,-5 -12.5,0 5,5 0,0 z" transform="matrix(-0.8,0,0,-0.8,-10,0)"/></marker></defs><metadata id="metadata7"/><g id="layer1"><g id="g4876" transform="translate(31.991203,-3.0219555e-5)"><rect id="rect3022" width="170" height="29.286" x="15" y="82.362" ry="7.857" style="fill:#812955;fill-opacity:1;stroke:#000;stroke-width:1.172912;stroke-linejoin:round;stroke-opacity:1"/><text style="font-size:10px;font-style:normal;font-weight:400;line-height:125%;letter-spacing:0;word-spacing:0;fill:#000;fill-opacity:1;stroke:none;font-family:Sans" id="text2993" x="32.512" y="102.732" xml:space="preserve"><tspan id="tspan2995" x="32.512" y="102.732" style="font-size:16px">Model Coordinates</tspan></text></g><g id="g4871" transform="translate(35.905264,7.4096683)"><rect id="rect3022-4" width="170" height="29.286" x="11.086" y="191.993" ry="7.857" style="fill:#812955;fill-opacity:1;stroke:#000;stroke-width:1.172912;stroke-linejoin:round;stroke-opacity:1"/><text style="font-size:10px;font-style:normal;font-weight:400;line-height:125%;letter-spacing:0;word-spacing:0;fill:#000;fill-opacity:1;stroke:none;font-family:Sans" id="text2993-0" x="30" y="212.362" xml:space="preserve"><tspan id="tspan2995-9" x="30" y="212.362" style="font-size:16px">World Coordinates</tspan></text></g><g id="g4866" transform="translate(26.991203,14.080536)"><rect id="rect3022-4-4" width="170" height="29.286" x="20" y="302.362" ry="7.857" style="fill:#812955;fill-opacity:1;stroke:#000;stroke-width:1.172912;stroke-linejoin:round;stroke-opacity:1"/><text style="font-size:10px;font-style:normal;font-weight:400;line-height:125%;letter-spacing:0;word-spacing:0;fill:#000;fill-opacity:1;stroke:none;font-family:Sans" id="text2993-0-8" x="31.035" y="322.732" xml:space="preserve"><tspan id="tspan2995-9-8" x="31.035" y="322.732" style="font-size:16px">Camera Coordinates</tspan></text></g><g id="g4861" transform="translate(-5.8095783,9.6559525e-6)"><rect id="rect3022-4-4-2" width="230" height="29.286" x="22.801" y="433.579" ry="7.857" style="fill:#812955;fill-opacity:1;stroke:#000;stroke-width:1.36428428;stroke-linejoin:round;stroke-opacity:1"/><text style="font-size:10px;font-style:normal;font-weight:400;line-height:125%;letter-spacing:0;word-spacing:0;fill:#000;fill-opacity:1;stroke:none;font-family:Sans" id="text2993-0-8-4" x="40" y="452.362" xml:space="preserve"><tspan id="tspan2995-9-8-5" x="40" y="452.362" style="font-size:16px">Homogeneous Coordinates</tspan></text></g><path id="path4512" d="m 131.9912,111.64787 0,87.75457" style="fill:none;stroke:#000;stroke-width:1px;stroke-linecap:butt;stroke-linejoin:miter;stroke-opacity:1;marker-end:url(#Arrow1Lend)"/><g id="g4881" transform="translate(47.14285,0.71428262)"><text style="font-size:20px;font-style:normal;font-weight:400;line-height:125%;letter-spacing:0;word-spacing:0;fill:#000;fill-opacity:1;stroke:none;font-family:Sans" id="text4700" x="140" y="162.362" xml:space="preserve"><tspan id="tspan4704" x="140" y="162.362" style="font-size:16px">Model Matrix</tspan></text><path style="fill:none;stroke:#000;stroke-width:2.5;stroke-linecap:round;stroke-linejoin:round;stroke-miterlimit:4;stroke-opacity:1;stroke-dasharray:none" id="path4708" d="m 137.85715,141.6479 -5,0 0,30 5,0"/><path style="fill:none;stroke:#000;stroke-width:2.5;stroke-linecap:round;stroke-linejoin:round;stroke-miterlimit:4;stroke-opacity:1;stroke-dasharray:none" id="path4708-0" d="m 232.85715,141.6479 5,0 0,30 -5,0"/></g><g id="g4887" transform="translate(15,15.35718)"><text style="font-size:20px;font-style:normal;font-weight:400;line-height:125%;letter-spacing:0;word-spacing:0;fill:#000;fill-opacity:1;stroke:none;font-family:Sans" id="text4700-3" x="172.143" y="263.076" xml:space="preserve"><tspan id="tspan4704-6" x="172.143" y="263.076" style="font-size:16px">View Matrix</tspan></text><path style="fill:none;stroke:#000;stroke-width:2.5;stroke-linecap:round;stroke-linejoin:round;stroke-miterlimit:4;stroke-opacity:1;stroke-dasharray:none" id="path4708-2" d="m 170,242.36218 -5,0 0,30 5,0"/><path style="fill:none;stroke:#000;stroke-width:2.5;stroke-linecap:round;stroke-linejoin:round;stroke-miterlimit:4;stroke-opacity:1;stroke-dasharray:none" id="path4708-0-4" d="m 260,242.36218 5,0 0,30 -5,0"/></g><path id="path4512-8" d="m 131.9912,228.68815 0,87.75457" style="fill:none;stroke:#000;stroke-width:1px;stroke-linecap:butt;stroke-linejoin:miter;stroke-opacity:1;marker-end:url(#Arrow1Lend)"/><path id="path4512-8-1" d="m 131.9912,345.72843 0,87.85028" style="fill:none;stroke:#000;stroke-width:1px;stroke-linecap:butt;stroke-linejoin:miter;stroke-opacity:1;marker-end:url(#Arrow1Lend)"/><g id="g4893" transform="translate(20,0.71432757)"><text style="font-size:20px;font-style:normal;font-weight:400;line-height:125%;letter-spacing:0;word-spacing:0;fill:#000;fill-opacity:1;stroke:none;font-family:Sans" id="text4700-3-4" x="167.143" y="393.076" xml:space="preserve"><tspan id="tspan4704-6-9" x="167.143" y="393.076" style="font-size:16px">Projection Matrix</tspan></text><path style="fill:none;stroke:#000;stroke-width:2.5;stroke-linecap:round;stroke-linejoin:round;stroke-miterlimit:4;stroke-opacity:1;stroke-dasharray:none" id="path4708-2-8" d="m 165,372.36218 -5,0 0,30 5,0"/><path style="fill:none;stroke:#000;stroke-width:2.5;stroke-linecap:round;stroke-linejoin:round;stroke-miterlimit:4;stroke-opacity:1;stroke-dasharray:none" id="path4708-0-4-2" d="m 290,372.36218 5,0 0,30 -5,0"/></g></g></svg>