<svg xmlns="http://www.w3.org/2000/svg" xmlns:svg="http://www.w3.org/2000/svg" id="svg2" width="744.094" height="1052.362" version="1.1"><defs id="defs4"><marker id="Arrow1Send" orient="auto" refX="0" refY="0" style="overflow:visible"><path id="path3783" d="M 0.0,0.0 L 5.0,-5.0 L -12.5,0.0 L 5.0,5.0 L 0.0,0.0 z" transform="scale(0.2) rotate(180) translate(6,0)" style="fill-rule:evenodd;stroke:#000;stroke-width:1pt;marker-start:none"/></marker><marker id="Arrow1Sstart" orient="auto" refX="0" refY="0" style="overflow:visible"><path id="path3780" d="M 0.0,0.0 L 5.0,-5.0 L -12.5,0.0 L 5.0,5.0 L 0.0,0.0 z" transform="scale(0.2) translate(6,0)" style="fill-rule:evenodd;stroke:#000;stroke-width:1pt;marker-start:none"/></marker><marker id="Arrow1Lstart" orient="auto" refX="0" refY="0" style="overflow:visible"><path id="path3768" d="M 0.0,0.0 L 5.0,-5.0 L -12.5,0.0 L 5.0,5.0 L 0.0,0.0 z" transform="scale(0.8) translate(12.5,0)" style="fill-rule:evenodd;stroke:#000;stroke-width:1pt;marker-start:none"/></marker><marker id="Arrow1Sstart-2" orient="auto" refX="0" refY="0" style="overflow:visible"><path id="path3780-0" d="M 0,0 5,-5 -12.5,0 5,5 0,0 z" transform="matrix(0.2,0,0,0.2,1.2,0)" style="fill-rule:evenodd;stroke:#000;stroke-width:1pt;marker-start:none"/></marker><marker id="Arrow1Send-5" orient="auto" refX="0" refY="0" style="overflow:visible"><path id="path3783-7" d="M 0,0 5,-5 -12.5,0 5,5 0,0 z" transform="matrix(-0.2,0,0,-0.2,-1.2,0)" style="fill-rule:evenodd;stroke:#000;stroke-width:1pt;marker-start:none"/></marker></defs><metadata id="metadata7"/><g id="layer1"><rect style="fill:#ffe6d5;stroke:#000" id="rect2987" width="470" height="240" x="90" y="462.362"/><path id="path2995" d="m 110,577.375 0,10 430,0 0,-10 -430,0 z" style="font-size:medium;font-style:normal;font-variant:normal;font-weight:400;font-stretch:normal;text-indent:0;text-align:start;text-decoration:none;line-height:normal;letter-spacing:normal;word-spacing:normal;text-transform:none;direction:ltr;block-progression:tb;writing-mode:lr-tb;text-anchor:start;baseline-shift:baseline;color:#000;fill:red;fill-opacity:1;fill-rule:nonzero;stroke:red;stroke-width:0;stroke-miterlimit:4;stroke-opacity:1;stroke-dasharray:none;marker:none;visibility:visible;display:inline;overflow:visible;enable-background:accumulate;font-family:Sans;-inkscape-font-specification:Sans"/><path id="path4621" d="m 122,582.36218 10,-10 -35,10 35,10 -10,-10 z" style="fill:red;fill-opacity:1;fill-rule:evenodd;stroke:red;stroke-width:2.5;stroke-miterlimit:4;stroke-opacity:1;stroke-dasharray:none;marker-start:none"/><path id="path4623" d="m 528,582.36218 -10,10 35,-10 -35,-10 10,10 z" style="fill:red;fill-opacity:1;fill-rule:evenodd;stroke:red;stroke-width:2.5;stroke-miterlimit:4;stroke-opacity:1;stroke-dasharray:none;marker-start:none"/><path id="path2995-5" d="m 325,482.375 0,200 10,0 0,-200 -10,0 z" style="font-size:medium;font-style:normal;font-variant:normal;font-weight:400;font-stretch:normal;text-indent:0;text-align:start;text-decoration:none;line-height:normal;letter-spacing:normal;word-spacing:normal;text-transform:none;direction:ltr;block-progression:tb;writing-mode:lr-tb;text-anchor:start;baseline-shift:baseline;color:#000;fill:#00d400;fill-opacity:1;stroke:none;stroke-width:10;marker:none;visibility:visible;display:inline;overflow:visible;enable-background:accumulate;font-family:Sans;-inkscape-font-specification:Sans"/><path id="path4634" d="m 330,494.36218 10,10 -10,-35 -10,35 10,-10 z" style="fill-rule:evenodd;stroke:#00d400;stroke-width:2pt;marker-start:none;stroke-opacity:1;fill:#00d400;fill-opacity:1"/><path id="path4636" d="m 330,670.36218 -10,-10 10,35 10,-35 -10,10 z" style="fill-rule:evenodd;stroke:#00d400;stroke-width:2pt;marker-start:none;stroke-opacity:1;fill:#00d400;fill-opacity:1"/><text style="font-size:32px;font-style:normal;font-weight:400;line-height:125%;letter-spacing:0;word-spacing:0;fill:#000;fill-opacity:1;stroke:none;font-family:Sans" id="text4641" x="336.568" y="568.504" xml:space="preserve"><tspan id="tspan4643" x="336.568" y="568.504">(0,0)</tspan></text><text style="font-size:32px;font-style:normal;font-weight:400;line-height:125%;letter-spacing:0;word-spacing:0;fill:#000;fill-opacity:1;stroke:none;font-family:Sans" id="text4645" x="487.175" y="561.988" xml:space="preserve"><tspan id="tspan4649" x="487.175" y="561.988">(1,0)</tspan></text><text style="font-size:32px;font-style:normal;font-weight:400;line-height:125%;letter-spacing:0;word-spacing:0;fill:#000;fill-opacity:1;stroke:none;font-family:Sans" id="text4653" x="342.02" y="491.301" xml:space="preserve"><tspan id="tspan4655" x="342.02" y="491.301">(0,1)</tspan></text><rect style="fill:none;stroke:#000;stroke-width:2.5;stroke-miterlimit:4;stroke-opacity:1;stroke-dasharray:none" id="rect4661" width="510" height="280" x="70" y="442.362"/></g></svg>